# xmcd
#
# Track frame offsets:
#	150
#	19101
#	32912
#	53736
#	58814
#	76167
#	92079
#	109223
#	132140
#	153464
#	168347
#
# Disc length: 2582 seconds
#
# Revision: 0
# Processed by: cddbd v1.5.2PL0 Copyright (c) Steve Scherf et al.
# Submitted via: EasyCDDAExtractor 16.0.6.1
#
DISCID=870a140b
DTITLE=Jemina and Selina Sillanp‰‰ and Tim Ries - Rajamailla
DYEAR=2012
DGENRE=
TTITLE0=Suunnitelmat
TTITLE1=En‰‰ en vaikene
TTITLE2=Rajamailla
TTITLE3=Pedot Intro
TTITLE4=Pedot
TTITLE5=Tulva
TTITLE6=Yˆlaulu
TTITLE7=Vuosi
TTITLE8=Italialaiset
TTITLE9=T‰‰lt‰ kotiin
TTITLE10=Kurjuuden kunnailla
EXTD=
EXTT0=
EXTT1=
EXTT2=
EXTT3=
EXTT4=
EXTT5=
EXTT6=
EXTT7=
EXTT8=
EXTT9=
EXTT10=
PLAYORDER=
